<?xml version="1.0" standalone="no"?><!DOCTYPE svg PUBLIC "-//W3C//DTD SVG 1.1//EN" "http://www.w3.org/Graphics/SVG/1.1/DTD/svg11.dtd"><svg t="1594022623152" class="icon" viewBox="0 0 1024 1024" version="1.1" xmlns="http://www.w3.org/2000/svg" p-id="6781" xmlns:xlink="http://www.w3.org/1999/xlink" width="200" height="200"><defs><style type="text/css"></style></defs><path d="M781.9 572.5V334c0-19.5-15.5-35.3-34.7-35.3H279.1c-19.1 0-34.7 15.8-34.7 35.3v477c0 19.5 15.5 35.3 34.7 35.3H683c19.1 0 98.9-64 98.9-83.5V572.5z" fill="#FCEE21" p-id="6782"></path><path d="M781.9 764.3V343.6c0-8.3-3-16-7.9-22-68.7 307.3-434 456.3-526.3 504.6 5.5 11.9 17.5 20.1 31.4 20.1H683c19.2 0 98.9-62.8 98.9-82z" fill="#F8B62D" p-id="6783"></path><path d="M781.9 569.7c-5.6 0-10.1-4.5-10.1-10.1V309.8c0-14.8-12.1-26.9-26.9-26.9h-457c-5.6 0-10.1-4.5-10.1-10.1s4.5-10.1 10.1-10.1H745c26 0 47.1 21.1 47.1 47.1v249.7c-0.1 5.7-4.6 10.2-10.2 10.2zM208.5 334.6c-5.6 0-10.1-4.5-10.1-10.1v-14.7c0-26 21.1-47.1 47.1-47.1h2.1c5.6 0 10.1 4.5 10.1 10.1s-4.5 10.1-10.1 10.1h-2.1c-14.8 0-26.9 12.1-26.9 26.9v14.7c-0.1 5.6-4.6 10.1-10.1 10.1zM482.9 856.4H245.4c-26 0-47.1-21.1-47.1-47.1V358.2c0-5.6 4.5-10.1 10.1-10.1s10.1 4.5 10.1 10.1v451.2c0 14.8 12.1 26.9 26.9 26.9h237.4c5.6 0 10.1 4.5 10.1 10.1s-4.5 10-10 10z" fill="#3E3A39" p-id="6784"></path><path d="M313.2 506.9h232.1" fill="#FCEE21" p-id="6785"></path><path d="M545.3 517H313.2c-5.6 0-10.1-4.5-10.1-10.1s4.5-10.1 10.1-10.1h232.1c5.6 0 10.1 4.5 10.1 10.1s-4.5 10.1-10.1 10.1z" fill="#3E3A39" p-id="6786"></path><path d="M313.2 603.4h188.7" fill="#FCEE21" p-id="6787"></path><path d="M501.9 613.5H313.2c-5.6 0-10.1-4.5-10.1-10.1s4.5-10.1 10.1-10.1h188.7c5.6 0 10.1 4.5 10.1 10.1s-4.5 10.1-10.1 10.1z" fill="#3E3A39" p-id="6788"></path><path d="M313.2 699.8h125.1" fill="#FCEE21" p-id="6789"></path><path d="M438.3 709.9h-125c-5.6 0-10.1-4.5-10.1-10.1s4.5-10.1 10.1-10.1h125c5.6 0 10.1 4.5 10.1 10.1s-4.6 10.1-10.1 10.1z" fill="#3E3A39" p-id="6790"></path><path d="M316.1 404h465.8" fill="#FCEE21" p-id="6791"></path><path d="M781.9 414.1H316.1c-5.6 0-10.1-4.5-10.1-10.1s4.5-10.1 10.1-10.1H782c5.6 0 10.1 4.5 10.1 10.1s-4.6 10.1-10.2 10.1z" fill="#3E3A39" p-id="6792"></path><path d="M381.9 330.3h-43.1c-2.1 0-3.8-1.7-3.8-3.8V209.9c0-2.1 1.7-3.8 3.8-3.8h43.1c2.1 0 3.8 1.7 3.8 3.8v116.7c0 2-1.7 3.7-3.8 3.7z" fill="#F8B62D" p-id="6793"></path><path d="M360.3 340.4c-19.5 0-35.4-15.9-35.4-35.4v-73.6c0-19.5 15.9-35.4 35.4-35.4s35.4 15.9 35.4 35.4V305c0.1 19.5-15.8 35.4-35.4 35.4z m0-124.2c-8.4 0-15.2 6.8-15.2 15.2V305c0 8.4 6.8 15.2 15.2 15.2 8.4 0 15.2-6.8 15.2-15.2v-73.6c0.1-8.4-6.8-15.2-15.2-15.2zM866.3 856.4h-24c-5.6 0-10.1-4.5-10.1-10.1s4.5-10.1 10.1-10.1h24c5.6 0 10.1 4.5 10.1 10.1s-4.6 10.1-10.1 10.1zM123.6 856.4H92.9c-5.6 0-10.1-4.5-10.1-10.1s4.5-10.1 10.1-10.1h30.7c5.6 0 10.1 4.5 10.1 10.1s-4.5 10.1-10.1 10.1zM803.7 856.4H155.4c-5.6 0-10.1-4.5-10.1-10.1s4.5-10.1 10.1-10.1h648.3c5.6 0 10.1 4.5 10.1 10.1s-4.5 10.1-10.1 10.1z" fill="#3E3A39" p-id="6794"></path><path d="M665.7 737.2m-127.1 0a127.1 127.1 0 1 0 254.2 0 127.1 127.1 0 1 0-254.2 0Z" fill="#FFFFFF" p-id="6795"></path><path d="M659.8 874.3c-82.6 0-149.8-67.2-149.8-149.8 0-82.6 67.2-149.8 149.8-149.8S809.5 642 809.5 724.6c0 82.5-67.1 149.7-149.7 149.7z m0-279.3c-71.5 0-129.6 58.1-129.6 129.6s58.1 129.6 129.6 129.6S789.4 796 789.4 724.6c0-71.5-58.2-129.6-129.6-129.6z" fill="#3E3A39" p-id="6796"></path><path d="M649.3 797c-2.5 0-4.9-0.9-6.7-2.6l-64.8-58.2c-4.1-3.7-4.5-10.1-0.8-14.2s10.1-4.5 14.2-0.8l56.7 50.9 77.4-101.2c3.4-4.4 9.7-5.3 14.1-1.9s5.3 9.7 1.9 14.1l-84 109.9c-1.7 2.2-4.3 3.7-7.1 3.9-0.2 0.1-0.6 0.1-0.9 0.1z" fill="#3E3A39" p-id="6797"></path><path d="M692.1 126.3c-15.1 0-27.3-12.3-27.3-27.3 0-15.1 12.3-27.3 27.3-27.3 15.1 0 27.3 12.3 27.3 27.3 0 15.1-12.2 27.3-27.3 27.3z m0-41.2c-7.7 0-13.9 6.2-13.9 13.9s6.2 13.9 13.9 13.9S706 106.7 706 99s-6.2-13.9-13.9-13.9z" fill="#47B7F8" p-id="6798"></path><path d="M249 169.9h-12v-12c0-3.2-2.6-5.8-5.8-5.8-3.2 0-5.8 2.6-5.8 5.8v12h-12c-3.2 0-5.8 2.6-5.8 5.8 0 3.2 2.6 5.8 5.8 5.8h12v12c0 3.2 2.6 5.8 5.8 5.8 3.2 0 5.8-2.6 5.8-5.8v-12h12c3.2 0 5.8-2.6 5.8-5.8 0-3.2-2.6-5.8-5.8-5.8zM853.2 286.2h-12v-12c0-3.2-2.6-5.8-5.8-5.8-3.2 0-5.8 2.6-5.8 5.8v12h-12c-3.2 0-5.8 2.6-5.8 5.8s2.6 5.8 5.8 5.8h12v12c0 3.2 2.6 5.8 5.8 5.8 3.2 0 5.8-2.6 5.8-5.8v-12h12c3.2 0 5.8-2.6 5.8-5.8s-2.6-5.8-5.8-5.8z" fill="#F7E42F" p-id="6799"></path><path d="M112.5 443.7H98.6v-13.9a6.7 6.7 0 0 0-13.4 0v13.9h-14a6.7 6.7 0 0 0 0 13.4h13.9V471a6.7 6.7 0 0 0 13.4 0v-13.9h13.9c3.7 0 6.7-3 6.7-6.7s-2.9-6.7-6.6-6.7z" fill="#F8B62D" p-id="6800"></path><path d="M340.1 109.1m-10.1 0a10.1 10.1 0 1 0 20.2 0 10.1 10.1 0 1 0-20.2 0Z" fill="#F8B62D" p-id="6801"></path><path d="M790.8 162.3m-13.4 0a13.4 13.4 0 1 0 26.8 0 13.4 13.4 0 1 0-26.8 0Z" fill="#F8B62D" p-id="6802"></path><path d="M545.3 115.7m-13.4 0a13.4 13.4 0 1 0 26.8 0 13.4 13.4 0 1 0-26.8 0Z" fill="#F7E42F" p-id="6803"></path><path d="M125.5 291.9c-15.1 0-27.3-12.3-27.3-27.3 0-15.1 12.3-27.3 27.3-27.3s27.3 12.3 27.3 27.3c0 15.1-12.3 27.3-27.3 27.3z m0-41.2c-7.7 0-13.9 6.2-13.9 13.9s6.2 13.9 13.9 13.9 13.9-6.2 13.9-13.9-6.3-13.9-13.9-13.9z" fill="#F8B62D" p-id="6804"></path><path d="M472.7 166.3c-1.5-1.4-3.8-1.4-5.3 0-0.7 0.7-1.1 1.6-1.1 2.6s0.4 1.9 1.1 2.6l11.9 11.9c0.7 0.7 1.6 1.1 2.6 1.1s1.9-0.4 2.6-1.1c1.4-1.5 1.4-3.8 0-5.3l-11.8-11.8zM504.3 197.9c-0.7-0.7-1.6-1.1-2.6-1.1s-1.9 0.4-2.6 1.1c-1.4 1.5-1.4 3.8 0 5.3l11.9 11.9c0.7 0.7 1.6 1.1 2.6 1.1s1.9-0.4 2.6-1.1c0.7-0.7 1.1-1.6 1.1-2.6s-0.4-1.9-1.1-2.6l-11.9-12zM501.6 184.6c1 0 1.9-0.4 2.6-1.1l11.9-11.9c0.7-0.7 1.1-1.6 1.1-2.6s-0.4-1.9-1.1-2.6c-1.5-1.5-3.8-1.5-5.3 0L499 178.3c-1.4 1.5-1.4 3.8 0 5.3 0.7 0.7 1.6 1 2.6 1zM479.4 197.9l-11.9 11.9c-0.7 0.7-1.1 1.6-1.1 2.6s0.4 1.9 1.1 2.6c0.7 0.7 1.6 1.1 2.6 1.1s1.9-0.4 2.6-1.1l11.9-11.9c1.4-1.5 1.4-3.8 0-5.3-1.3-1.3-3.8-1.3-5.2 0.1zM481.7 190.7c0-2.1-1.7-3.7-3.7-3.7h-16.9c-2.1 0-3.7 1.7-3.7 3.7 0 2.1 1.7 3.7 3.7 3.7H478c2 0 3.7-1.6 3.7-3.7zM522.6 187h-16.9c-2.1 0-3.7 1.7-3.7 3.7 0 2.1 1.7 3.7 3.7 3.7h16.9c2.1 0 3.7-1.7 3.7-3.7s-1.7-3.7-3.7-3.7zM491.8 156.2c-2.1 0-3.7 1.7-3.7 3.7v16.9c0 2.1 1.7 3.7 3.7 3.7 2.1 0 3.7-1.7 3.7-3.7V160c0-2.1-1.6-3.8-3.7-3.8zM491.8 200.8c-2.1 0-3.7 1.7-3.7 3.7v16.9c0 2.1 1.7 3.7 3.7 3.7 2.1 0 3.7-1.7 3.7-3.7v-16.9c0-2-1.6-3.7-3.7-3.7z" fill="#FAEE00" p-id="6805"></path><path d="M905.9 417c-1.5-1.4-3.8-1.4-5.3 0-0.7 0.7-1.1 1.6-1.1 2.6s0.4 1.9 1.1 2.6l11.9 11.9c0.7 0.7 1.6 1.1 2.6 1.1s1.9-0.4 2.6-1.1c1.4-1.5 1.4-3.8 0-5.3L905.9 417zM937.5 448.5c-0.7-0.7-1.6-1.1-2.6-1.1s-1.9 0.4-2.6 1.1c-1.4 1.5-1.4 3.8 0 5.3l11.9 11.9c0.7 0.7 1.6 1.1 2.6 1.1s1.9-0.4 2.6-1.1c0.7-0.7 1.1-1.6 1.1-2.6s-0.4-1.9-1.1-2.6l-11.9-12zM934.8 435.3c1 0 1.9-0.4 2.6-1.1l11.9-11.9c0.7-0.7 1.1-1.6 1.1-2.6s-0.4-1.9-1.1-2.6c-1.5-1.5-3.8-1.5-5.3 0L932.1 429c-1.4 1.5-1.4 3.8 0 5.3 0.8 0.6 1.7 1 2.7 1zM912.6 448.5l-11.9 11.9c-0.7 0.7-1.1 1.6-1.1 2.6s0.4 1.9 1.1 2.6c0.7 0.7 1.6 1.1 2.6 1.1s1.9-0.4 2.6-1.1l11.9-11.9c1.4-1.5 1.4-3.8 0-5.3-1.3-1.3-3.8-1.3-5.2 0.1zM914.9 441.4c0-2.1-1.7-3.7-3.7-3.7h-16.9c-2.1 0-3.7 1.7-3.7 3.7s1.7 3.7 3.7 3.7h16.9c2 0 3.7-1.7 3.7-3.7zM955.8 437.6h-16.9c-2.1 0-3.7 1.7-3.7 3.7s1.7 3.7 3.7 3.7h16.9c2.1 0 3.7-1.7 3.7-3.7s-1.7-3.7-3.7-3.7zM925 406.9c-2.1 0-3.7 1.7-3.7 3.7v16.9c0 2.1 1.7 3.7 3.7 3.7s3.7-1.7 3.7-3.7v-16.9c0.1-2-1.6-3.7-3.7-3.7zM925 451.5c-2.1 0-3.7 1.7-3.7 3.7v16.9c0 2.1 1.7 3.7 3.7 3.7s3.7-1.7 3.7-3.7v-16.9c0.1-2.1-1.6-3.7-3.7-3.7z" fill="#F8B62D" p-id="6806"></path><path d="M648.3 330.3h-43.1c-2.1 0-3.8-1.7-3.8-3.8V209.9c0-2.1 1.7-3.8 3.8-3.8h43.1c2.1 0 3.8 1.7 3.8 3.8v116.7c0 2-1.7 3.7-3.8 3.7z" fill="#F8B62D" p-id="6807"></path><path d="M626.7 340.4c-19.5 0-35.4-15.9-35.4-35.4v-73.6c0-19.5 15.9-35.4 35.4-35.4s35.4 15.9 35.4 35.4V305c0.1 19.5-15.8 35.4-35.4 35.4z m0-124.2c-8.4 0-15.2 6.8-15.2 15.2V305c0 8.4 6.8 15.2 15.2 15.2 8.4 0 15.2-6.8 15.2-15.2v-73.6c0.1-8.4-6.8-15.2-15.2-15.2z" fill="#3E3A39" p-id="6808"></path><path d="M271.3 381.9c-5.6 0-10.1-4.5-10.1-10.1V341c0-17.7 14.4-32.1 32.1-32.1h17.8c5.6 0 10.1 4.5 10.1 10.1s-4.5 10.1-10.1 10.1h-17.8c-6.6 0-12 5.4-12 12v30.8c0.1 5.5-4.4 10-10 10z" fill="#FFFFFF" p-id="6809"></path><path d="M271.3 576.4c-5.6 0-10.1-4.5-10.1-10.1V455.6c0-5.6 4.5-10.1 10.1-10.1s10.1 4.5 10.1 10.1v110.7c0 5.6-4.5 10.1-10.1 10.1z" fill="#FFFFFF" p-id="6810"></path></svg>