<?xml version="1.0" standalone="no"?><!DOCTYPE svg PUBLIC "-//W3C//DTD SVG 1.1//EN" "http://www.w3.org/Graphics/SVG/1.1/DTD/svg11.dtd"><svg t="1681314397470" class="icon" viewBox="0 0 1024 1024" version="1.1" xmlns="http://www.w3.org/2000/svg" p-id="2282" xmlns:xlink="http://www.w3.org/1999/xlink" width="200" height="200"><path d="M448.22 48C704.358 48 912 255.74 912 512l-0.062 7.673C907.842 772.394 701.797 976 448.22 976c-110.645 0-198.866-26.169-264.663-78.506a32 32 0 0 1-4.325-4.159c-11.419-13.256-10.058-33.192 2.962-44.78l0.399-0.35 2.742-2.383c89.13-78.201 134.016-188.043 134.66-329.525L320 512c0.253-143.557-44.635-254.831-134.665-333.822l-2.742-2.384c-13.39-11.534-14.895-31.74-3.36-45.13a32 32 0 0 1 4.324-4.158C249.354 74.17 337.575 48 448.22 48z m0 64c-78.634 0-142.266 14.443-192.055 42.56l-1.809 1.03 0.175 0.18c85.695 88.653 128.775 207.05 129.462 351.494l0.007 4.825-0.007 4.499c-0.65 143.074-42.893 260.596-126.9 348.969l-2.737 2.852 1.809 1.031c49.174 27.77 111.852 42.201 189.149 42.56h2.906c216.135 0 392.63-171.775 399.568-386.834l0.154-6.358 0.057-6.946-0.053-6.477C844.452 289.716 670.368 115.55 454.83 112.054l-6.61-0.054z" fill="#000000" p-id="2283"></path></svg>