<?xml version="1.0" standalone="no"?><!DOCTYPE svg PUBLIC "-//W3C//DTD SVG 1.1//EN" "http://www.w3.org/Graphics/SVG/1.1/DTD/svg11.dtd"><svg t="1613816440554" class="icon" viewBox="0 0 1024 1024" version="1.1" xmlns="http://www.w3.org/2000/svg" p-id="2265" xmlns:xlink="http://www.w3.org/1999/xlink" width="200" height="200"><defs><style type="text/css"></style></defs><path d="M883.459773 504.826645a46.043165 46.043165 0 0 1-60.708766-0.937916 41.609379 41.609379 0 0 1-3.49587-58.236078l77.591261-77.932321a163.538503 163.538503 0 0 0-16.96776-229.10738c-67.359446-67.274181-166.863842-73.328004-223.053557-16.711964L439.995878 340.264961a163.538503 163.538503 0 0 0 17.053024 229.107381 41.609379 41.609379 0 0 1 0 60.367706 45.61684 45.61684 0 0 1-63.43725 0 246.330935 246.330935 0 0 1-16.967759-347.284839L593.473096 65.37021C686.753139-28.080362 845.090469-20.406501 945.959107 82.423235a246.24567 246.24567 0 0 1 15.603518 343.618438l-78.102852 78.784972z m-742.318145 13.64242a46.043165 46.043165 0 0 1 60.708766 0.937916c16.797229 15.518252 18.417266 40.927258 3.49587 58.236078l-77.59126 77.932321a163.538503 163.538503 0 0 0 16.967759 229.10738c67.359446 67.274181 166.863842 73.328004 223.053557 16.711964L584.605524 683.030749a163.538503 163.538503 0 0 0-17.053025-229.107381 41.609379 41.609379 0 0 1 0-60.367706 45.531575 45.531575 0 0 1 63.437251 0 246.330935 246.330935 0 0 1 16.967759 347.284839l-216.829204 217.170264c-93.280043 93.365308-251.617373 85.691447-352.486011-17.053025a246.24567 246.24567 0 0 1-15.603517-343.618438l78.102851-78.784972z" p-id="2266"></path></svg>